{"title":"The.Back.Up.Plan.2010.480p.BRRip.XviD.AC3-LEGi0N","uid":5759868,"size":1577309387,"categoryP":"video","categoryS":"movies","magnet":"?xt=urn:btih:3d4848d63f92a9a1b7a457a4b5e9c59663512fa0&amp;dn=The.Back.Up.Plan.2010.480p.BRRip.XviD.AC3-LEGi0N&amp;tr=udp%3A%2F%2Ftracker.openbittorrent.com%3A80&amp;tr=udp%3A%2F%2Fopen.demonii.com%3A1337&amp;tr=udp%3A%2F%2Ftracker.coppersurfer.tk%3A6969&amp;tr=udp%3A%2F%2Fexodus.desync.com%3A6969","seeders":0,"leechers":0,"uploader":"TvTeam","files":5,"time":1281691873,"description":". \n  &lt;a href=&quot;\nhttp://www.torrentday.com/&quot; rel=&quot;nofollow&quot; target=&quot;_NEW&quot;&gt;\nhttp://www.torrentday.com/&lt;/a&gt;        :     The Hottest Private Tracker On The Net!!!\n\n\n               www . TorrentDay . Com \n(((((((((((((= Enjoy No RAR releases =))))))))))))))))))))\n\n\n...................................NFO:....................................\n\n.[img]http://leetleech.org/images/09908081291975149128.png[/img]\n\n[b]The Back-up Plan 2010 480p BRRip XviD AC3-LEGi0N\n\n[img]http://leetleech.org/images/48874973695367351744.png[/img]\n[color=red]General[/color]\nFormat: AVI\nFile size: 1.45 GiB\nDuration: 1h 44mn\nOverall bit rate: 1 997 Kbps\nIMDb Rating: 4.4/10   5,482 votes\nGenre: Comedy | Romance \nRelease Date: 23 April 2010\nIMDb Link: http://www.imdb.com/title/tt1212436/\nSource: 720p BluRay x264-MACHD\n\n[color=red]Video[/color]\nFormat: MPEG-4 Visual\nFormat profile: Streaming Video@L1\nFormat settings, BVOP: Yes\nFormat settings, QPel: No\nFormat settings, GMC: No warppoints\nFormat settings, Matrix: Default (H.263)\nMuxing mode: Packed bitstream\nCodec ID: XVID\nBit rate: 1 540 Kbps\nWidth: 720 pixels\nHeight: 304 pixels\nDisplay aspect ratio: 2.35\nFrame rate: 23.976 fps\nResolution: 24 bits\nColorimetry: 4:2:0\nScan type: Progressive\nBits/(Pixel*Frame): 0.293\nStream size: 1.12 GiB (77%)\n\n[color=red]Audio[/color]\nFormat: AC-3\nBit rate mode: Constant\nBit rate: 448 Kbps\nChannel(s): 6 channels\nSampling rate: 48.0 KHz\nStream size: 334 MiB (22%)\n\n[img]http://leetleech.org/images/89524873606771859129.png[/img]\nZoe's a woman who has a hard time letting anyone into her life. \nShe has a habit of pushing people away when they get close. She \nalso wants to have a baby but because she has no man in her life \ndecides to be artificially inseminated. Shortly after having the \nprocedure she meets a guy named Stan whom she connects with. But \nshe's still afraid to let him in and when she tells him about her \npregnancy thinking he would bail but he sticks with her.\n\n[color=red]Tagline:[color]\nFall in love.* Get married. Have a baby. *Not necessarily in that order.\n\n[img]http://leetleech.org/images/84434050717770922575.png[/img]\nJennifer Lopez\t... \tZoe\nAlex O'Loughlin\t... \tStan\nMichaela Watkins\t... \tMona\nEric Christian Olsen\t... \tClive\nAnthony Anderson\t... \tPlayground Dad\nNoureen DeWulf\t... \tDaphne\nMelissa McCarthy\t... \tCarol\nTom Bosley\t... \tArthur\nMaribeth Monroe\t... \tLori\nDanneel Harris\t... \tOlivia\nRobert Klein\t... \tDr. Scott Harris\nLinda Lavin\t... \tNana\nCarlease Burke\t... \tTabitha\nAmy Block\t... \tSara\nJennifer Elise Cox\t... \tBaby Store Sales Clerk\n\n[color=red]GREETZ[/color]\nNoir | xXTHORNXx | bigimac | LUSi |\n\nkempas | KaN1vE | mike160 | skillz |\n\nLungbuster | Sheikh | dillon1369 |\n\nFLAWL3SS | AND ALL P2P!\n\n[color=red]SAMPLE INCLUDED![/color][/b]\n\n[img]http://leetleech.org/images/95521316153253938506.png[/img]\n[img]http://leetleech.org/images/12504215141920468274.png[/img]\n[img]http://leetleech.org/images/80071866723815739318.png[/img]\n[img]http://leetleech.org/images/92517286945216712899.png[/img]\n[img]http://leetleech.org/images/70449272746819431769.png[/img]\n[img]http://leetleech.org/images/33040479242441479677.png[/img]\n[img]http://leetleech.org/images/12755021538703799215.png[/img]","torrent":{"xt":"urn:btih:3d4848d63f92a9a1b7a457a4b5e9c59663512fa0","amp;dn":"The.Back.Up.Plan.2010.480p.BRRip.XviD.AC3-LEGi0N","amp;tr":["udp%3A%2F%2Ftracker.openbittorrent.com%3A80","udp%3A%2F%2Fopen.demonii.com%3A1337","udp%3A%2F%2Ftracker.coppersurfer.tk%3A6969","udp%3A%2F%2Fexodus.desync.com%3A6969"],"infoHash":"3d4848d63f92a9a1b7a457a4b5e9c59663512fa0","infoHashBuffer":{"type":"Buffer","data":[61,72,72,214,63,146,169,161,183,164,87,164,181,233,197,150,99,81,47,160]},"announce":[],"urlList":[]}}